# xmcd
#
# Track frame offsets: 
#        150
#        17485
#        33152
#        51283
#        73137
#        90646
#        119431
#        135045
#        151407
#        172217
#        193399
#
# Disc length: 2708 seconds
#
# Revision: 0
# Processed by: cddbd v1.5.2PL0 Copyright (c) Steve Scherf et al.
# Submitted via: ExactAudioCopy v0.95b4
#
DISCID=930a920b
DTITLE=Rick Derringer - Rockin' American
DYEAR=2007
DGENRE=Blues
TTITLE0=Real American
TTITLE1=Free Ride
TTITLE2=Pink Floyd Saves Humanity
TTITLE3=Hang on Sloopy
TTITLE4=Rock and Roll Hoochie Koo
TTITLE5=One Way
TTITLE6=Still Alive and Well
TTITLE7=Dawn of Love
TTITLE8=Coming Home
TTITLE9=How Much You're Loved
TTITLE10=The Star Spangled Banner
EXTD=
EXTT0=
EXTT1=
EXTT2=
EXTT3=
EXTT4=
EXTT5=
EXTT6=
EXTT7=
EXTT8=
EXTT9=
EXTT10=
PLAYORDER=
